<?xml version="1.0" encoding="utf-8"?>
<!-- Generator: Adobe Illustrator 16.0.0, SVG Export Plug-In . SVG Version: 6.00 Build 0)  -->
<!DOCTYPE svg PUBLIC "-//W3C//DTD SVG 1.0//EN" "http://www.w3.org/TR/2001/REC-SVG-20010904/DTD/svg10.dtd">
<svg version="1.0" id="Layer_1" xmlns="http://www.w3.org/2000/svg" xmlns:xlink="http://www.w3.org/1999/xlink" x="0px" y="0px"
	 width="360px" height="360px" viewBox="0 0 360 360" enable-background="new 0 0 360 360" xml:space="preserve">
<g>
	<path d="M-35.189-177.154c-12.777,0.004-23.18,10.375-23.164,23.164v359.965c0,12.779,10.359,23.176,23.164,23.164
		c12.799,0,23.178-10.387,23.178-23.158l-0.012-359.971C-12.016-166.773-22.391-177.133-35.189-177.154z"/>
	<path d="M-82.311,174.029l0.004-359.984c-0.008-12.768-10.395-23.146-23.178-23.152c-12.805-0.023-23.188,10.363-23.18,23.174
		l0.023,359.945c-0.016,12.775,10.359,23.174,23.156,23.148C-92.709,197.15-82.307,186.797-82.311,174.029z"/>
	<path d="M105.465-281.232c-12.775,0.002-23.166,10.361-23.15,23.152l0.012,359.959c-0.004,12.777,10.371,23.16,23.158,23.166
		c12.813-0.01,23.172-10.385,23.18-23.172l-0.012-359.967C128.648-270.865,118.289-281.236,105.465-281.232z"/>
	<path d="M58.377,69.926l-0.016-359.969c0.008-12.781-10.375-23.16-23.16-23.17c-12.814-0.014-23.174,10.355-23.182,23.18
		l0.008,359.957c-0.008,12.77,10.375,23.162,23.162,23.141C48.002,93.082,58.369,82.705,58.377,69.926z"/>
</g>
<path d="M23.176,318.1L23.16-41.869C23.168-54.65,12.785-65.029,0-65.039c-12.816-0.014-23.176,10.355-23.184,23.18l0.008,359.957
	c-0.008,12.77,10.375,23.162,23.164,23.141C12.801,341.256,23.168,330.879,23.176,318.1z"/>
</svg>
