<?xml version="1.0" encoding="utf-8"?>
<!-- Generator: Adobe Illustrator 16.0.0, SVG Export Plug-In . SVG Version: 6.00 Build 0)  -->
<!DOCTYPE svg PUBLIC "-//W3C//DTD SVG 1.0//EN" "http://www.w3.org/TR/2001/REC-SVG-20010904/DTD/svg10.dtd">
<svg version="1.0" id="Layer_1" xmlns="http://www.w3.org/2000/svg" xmlns:xlink="http://www.w3.org/1999/xlink" x="0px" y="0px"
	 width="360px" height="360px" viewBox="0 0 360 360" enable-background="new 0 0 360 360" xml:space="preserve">
<path d="M-576-576V576H576V-576H-576z M-227.072,129.543c-10.303-7.59-12.459-22.121-4.844-32.379l214.084-289.359
	c7.611-10.305,22.137-12.48,32.418-4.844c10.273,7.611,12.449,22.131,4.859,32.398l-214.129,289.375
	C-202.275,135-216.797,137.137-227.072,129.543z M-189.584,197.063c-10.305-7.609-12.447-22.125-4.844-32.398L19.688-124.695
	c7.594-10.293,22.125-12.441,32.398-4.844c10.277,7.631,12.453,22.131,4.844,32.398L-157.18,192.234
	C-164.775,202.5-179.297,204.676-189.584,197.063z M-52.068,129.543c-10.295-7.59-12.459-22.121-4.855-32.379L157.18-192.195
	c7.633-10.305,22.125-12.48,32.422-4.844c10.27,7.611,12.445,22.131,4.836,32.398L-19.668,124.734
	C-27.279,135-41.783,137.176-52.068,129.543z M231.938-97.145L17.832,192.227c-7.613,10.273-22.115,12.449-32.42,4.836
	c-10.275-7.609-12.439-22.125-4.836-32.398L194.68-124.695c7.594-10.293,22.109-12.441,32.383-4.844
	C237.375-121.912,239.531-107.412,231.938-97.145z"/>
</svg>
